<svg xmlns="http://www.w3.org/2000/svg" width="10.235" height="10" viewBox="0 0 10.235 10">
    <path id="路径_10" data-name="路径 10" d="M5.117,22.1a5.444,5.444,0,0,1-1.834-.32l-2.111.959A.59.59,0,0,1,.9,22.8a.794.794,0,0,1-.426-.149.647.647,0,0,1-.213-.661L.768,19.9A4.327,4.327,0,0,1,0,17.448,4.913,4.913,0,0,1,5.117,12.8a4.913,4.913,0,0,1,5.117,4.648A4.913,4.913,0,0,1,5.117,22.1Zm0-8.465a4.061,4.061,0,0,0-4.264,3.8,3.56,3.56,0,0,0,.725,2.111l.107.171L1.173,21.8l2.09-.938.171.064a4.547,4.547,0,0,0,1.684.32,4.061,4.061,0,0,0,4.264-3.8A4.063,4.063,0,0,0,5.117,13.632Zm1.706,3.625a.64.64,0,1,1,.64-.64A.628.628,0,0,1,6.823,17.256Zm-3.412,0a.64.64,0,1,1,.64-.64A.628.628,0,0,1,3.412,17.256Z" transform="translate(0 -12.8)" fill="#5a5a5a"/>
</svg>
