<svg xmlns="http://www.w3.org/2000/svg" width="18.936" height="18" viewBox="0 0 18.936 18">
    <g id="组_2" data-name="组 2" transform="translate(-63.891 -65.014)">
        <path id="路径_18" data-name="路径 18" d="M63.891,150.37H82.827v1.785H63.891V150.37Zm0,0" transform="translate(0 -83.552)" fill="#ffffff"/>
        <path id="路径_19" data-name="路径 19" d="M362.635,65.014h6.313v2.012h-6.313V65.014Zm0,0" transform="translate(-292.431)" fill="#ffffff"/>
        <path id="路径_20" data-name="路径 20" d="M148.331,321.041h1.8V332.6h-1.8V321.041Zm0,0" transform="translate(-82.655 -250.617)" fill="#ffffff"/>
        <path id="路径_21" data-name="路径 21" d="M361.76,321.831h1.8v11.558h-1.8V321.831Zm0,0" transform="translate(-291.574 -251.39)" fill="#ffffff"/>
        <path id="路径_22" data-name="路径 22" d="M576.069,321.831h1.8v11.558h-1.8V321.831Zm0,0" transform="translate(-501.355 -251.39)" fill="#ffffff"/>
        <path id="路径_23" data-name="路径 23" d="M788.544,321.831h1.8v11.558h-1.8V321.831Zm0,0" transform="translate(-709.34 -251.39)" fill="#ffffff"/>
        <path id="路径_24" data-name="路径 24" d="M148.331,832.924h15.331V834.7H148.331v-1.773Zm0,0" transform="translate(-82.655 -751.683)" fill="#ffffff"/>
    </g>
</svg>
