<svg xmlns="http://www.w3.org/2000/svg" width="23.301" height="18.308" viewBox="0 0 23.301 18.308">
    <path id="路径_4" data-name="路径 4" d="M64.832,160h7.145a.832.832,0,0,1,.588.244l2.841,2.841a.832.832,0,0,0,.588.244H86.469a.832.832,0,0,1,.832.832v13.315a.832.832,0,0,1-.832.832H64.832a.832.832,0,0,1-.832-.832V160.832A.832.832,0,0,1,64.832,160Zm7.7,12.066a.208.208,0,0,0-.208.208v1.248a.208.208,0,0,0,.208.208h6.241a.208.208,0,0,0,.208-.208v-1.248a.208.208,0,0,0-.208-.208Z" transform="translate(-64 -160)" fill="#5a5a5a"/>
</svg>
