<svg t="1585483184542" class="icon" viewBox="0 0 1024 1024" version="1.1" xmlns="http://www.w3.org/2000/svg" p-id="2190" width="200" height="200"><path d="M516.693333 19.2a495.36 495.36 0 1 0 495.36 495.36A495.786667 495.786667 0 0 0 516.693333 19.2z m0 926.72a431.36 431.36 0 1 1 431.36-431.36 431.786667 431.786667 0 0 1-431.36 431.786667z" fill="#5a5a5a" p-id="2191"></path><path d="M548.693333 501.333333V227.84a32 32 0 0 0-64 0v287.146667a31.573333 31.573333 0 0 0 9.813334 22.613333l235.946666 227.413333a32 32 0 1 0 42.666667-46.08z" fill="#5a5a5a" p-id="2192"></path></svg>