<svg t="1586769780653" class="icon" viewBox="0 0 1024 1024" version="1.1" xmlns="http://www.w3.org/2000/svg" p-id="1816" width="200" height="200"><path d="M256 513.422c0 14.222-12.8 27.022-27.022 27.022H27.022C11.378 540.444 0 527.644 0 513.422V512c0-15.644 12.8-27.022 27.022-27.022h201.956C243.2 483.556 256 496.356 256 510.578v2.844zM1024 513.422c0 15.645-12.8 27.022-27.022 27.022H795.022c-15.644 0-27.022-12.8-27.022-27.022V512c0-15.644 12.8-27.022 27.022-27.022h200.534c15.644 0 27.022 12.8 27.022 27.022l1.422 1.422zM540.444 228.978c0 14.222-12.8 27.022-27.022 27.022H512c-15.644 0-28.444-12.8-28.444-27.022V27.022c0-15.644 12.8-27.022 27.022-27.022H512c15.644 0 27.022 12.8 27.022 27.022v201.956h1.422zM540.444 996.978c0 15.644-12.8 27.022-27.022 27.022H512c-15.644 0-27.022-12.8-27.022-27.022V795.022c0-15.644 12.8-27.022 27.022-27.022h1.422c15.645 0 27.022 12.8 27.022 27.022v201.956zM329.956 331.378c-11.378 11.378-28.445 11.378-38.4 0L149.333 189.156c-11.377-11.378-11.377-28.445 0-38.4l1.423-1.423c11.377-11.377 28.444-11.377 38.4 0l142.222 142.223c11.378 9.955 11.378 28.444-1.422 39.822zM873.244 874.667c-11.377 11.377-28.444 11.377-38.4 0L692.622 732.444c-11.378-11.377-11.378-28.444 0-38.4l1.422-1.422c11.378-11.378 28.445-11.378 38.4 0l142.223 142.222c11.377 9.956 11.377 28.445-1.423 39.823zM732.444 331.378c-11.377 11.378-28.444 11.378-38.4 0l-1.422-1.422c-11.378-11.378-11.378-28.445 0-38.4l142.222-142.223c11.378-11.377 28.445-11.377 38.4 0l1.423 1.423c11.377 11.377 11.377 28.444 0 38.4L732.444 331.378zM189.156 874.667c-11.378 11.377-28.445 11.377-38.4 0l-1.423-1.423c-11.377-11.377-11.377-28.444 0-38.4l142.223-142.222c11.377-11.378 28.444-11.378 38.4 0l1.422 1.422c11.378 11.378 11.378 28.445 0 38.4L189.156 874.667z" p-id="1817"></path></svg>