<svg xmlns="http://www.w3.org/2000/svg" width="115.22" height="40" viewBox="0 0 115.22 40">
    <g id="Logo" transform="translate(1)">
        <text id="Carrot" transform="translate(41 32)" fill="#fff" font-size="30" font-family="SegoeUI, Segoe UI"><tspan x="-41.221" y="0">Carrot</tspan></text>
        <path id="路径_1" data-name="路径 1" d="M49.72,11.755a1.208,1.208,0,0,1-1.751,0l-.438-.438a3.813,3.813,0,0,0-5.315,0l-.438.438h0l-.438.438.875.875h0a3.626,3.626,0,0,1,0,5.252,9.17,9.17,0,0,0-.688.625h0L23.209,29.824h0a.194.194,0,0,0-.125.063.23.23,0,0,1-.188.063c-.063,0-.188.063-.25.063h-.188c-.125,0-.188,0-.25-.063-.063,0-.125,0-.125-.063a1.149,1.149,0,0,1-.625-.625c0-.063,0-.125-.063-.125,0-.063-.063-.188-.063-.25V28.7a.376.376,0,0,1,.063-.25c0-.063.063-.125.063-.188a.061.061,0,0,1,.063-.063h0L32.65,10.254h0a3.709,3.709,0,0,0,.625-.688,3.813,3.813,0,0,1,5.315,0l.875.875L39.9,10a3.626,3.626,0,0,0,0-5.252L38.59,3.439a1.209,1.209,0,0,1,0-1.751,1.208,1.208,0,0,1,1.751,0L41.654,3a5.307,5.307,0,0,1,1.5,2.438,3.622,3.622,0,0,0-1.063-2.876l-.438-.438a1.209,1.209,0,0,1,0-1.751,1.208,1.208,0,0,1,1.751,0l.438.438a6.054,6.054,0,0,1,1.251,6.94,6.085,6.085,0,0,1,4.064,1.813l.438.438A1.123,1.123,0,0,1,49.72,11.755Zm-14.693-.438-.313.313-.438.75,2.063,2.063a1.238,1.238,0,0,1-1.751,1.751L32.9,14.568l-6.565,10.5,6.94-4.127L32.4,20.07a1.238,1.238,0,1,1,1.751-1.751l1.313,1.313,4.627-2.751a1.082,1.082,0,0,1,.313-.313,1.209,1.209,0,0,0,0-1.751l-1.751-1.751L36.9,11.317A1.359,1.359,0,0,0,35.026,11.317Z" transform="translate(64.14 2.539)" fill="#fff"/>
    </g>
</svg>
