<svg xmlns="http://www.w3.org/2000/svg" width="15" height="15" viewBox="0 0 15 15">
    <path id="路径_6" data-name="路径 6" d="M   13.75,15H1.25A1.254,1.254,0,0,1,0,13.75V1.25A1.254,1.254,0,0,1,1.25,0h12.5A1.254,1.254,0,0,1,15,1.25v12.5A1.254,1.254,0,0,1,13.75,15Zm0-13.438a.3.3,0,0,0-.312-.312H1.563a.3.3,0,0,0-.313.313V13.438a.3.3,0,0,0,.312.313H13.438a.3.3,0,0,0,.313-.313ZM6.687,10.437a.524.524,0,0,1-.437.187.524.524,0,0,1-.438-.187l-2.5-2.5A.524.524,0,0,1,3.125,7.5a.627.627,0,0,1,.625-.625.524.524,0,0,1,.438.188L6.25,9.125l4.563-4.563a.617.617,0,0,1,.438-.187A.627.627,0,0,1,11.875,5a.524.524,0,0,1-.187.438Z" fill="#5a5a5a"/>
</svg>
