<svg xmlns="http://www.w3.org/2000/svg" width="10" height="10" viewBox="0 0 10 10">
    <path id="路径_9" data-name="路径 9" d="M9.167,4.583A.418.418,0,0,0,8.75,5V8.958a.2.2,0,0,1-.208.208h-7.5a.2.2,0,0,1-.208-.208V2.292a.2.2,0,0,1,.208-.208H4.583a.417.417,0,1,0,0-.833H.833A.836.836,0,0,0,0,2.083V9.167A.836.836,0,0,0,.833,10H8.75a.836.836,0,0,0,.833-.833V5A.418.418,0,0,0,9.167,4.583Zm.708-3L8.417.125A.35.35,0,0,0,8.125,0a.418.418,0,0,0-.417.417.35.35,0,0,0,.125.292l.812.812a6.688,6.688,0,0,0-5.729,6.6.417.417,0,1,0,.833,0A5.834,5.834,0,0,1,8.479,2.4l-.646.646a.35.35,0,0,0-.125.292.418.418,0,0,0,.417.417.35.35,0,0,0,.292-.125L9.875,2.167A.35.35,0,0,0,10,1.875.35.35,0,0,0,9.875,1.583Z" fill="#5a5a5a"/>
</svg>
