<svg xmlns="http://www.w3.org/2000/svg" width="20.56" height="20.56" viewBox="0 0 20.56 20.56">
    <path id="路径_7" data-name="路径 7" d="M18.847,20.56H1.713A1.718,1.718,0,0,1,0,18.847V11.994a.857.857,0,1,1,1.713,0v6.425a.4.4,0,0,0,.428.428H18.419a.4.4,0,0,0,.428-.428V11.994h0a.857.857,0,1,1,1.713,0v6.853A1.718,1.718,0,0,1,18.847,20.56ZM16.02,10.023l-5.14,5.14h0a.828.828,0,0,1-1.2,0h0l-5.14-5.14h0a.719.719,0,0,1-.257-.6.859.859,0,0,1,.857-.857.719.719,0,0,1,.6.257h0l3.684,3.684V.857a.857.857,0,1,1,1.713,0V12.508l3.684-3.684h0a.846.846,0,0,1,.6-.257.859.859,0,0,1,.857.857.719.719,0,0,1-.257.6Z" fill="#5a5a5a"/>
</svg>
